Radio-Canada-Regular-slant-10.ufo
<glyph name="exclam" format="1">
  <advance width="322"/>
  <unicode hex="0021"/>
  <outline>
    <contour>
      <point x="200.80839506485947" y="515.0" type="line"/>
      <point x="163.02866594877764" y="210.0" type="line"/>
      <point x="233.02866594877764" y="210.0" type="line"/>
      <point x="302.8083950648595" y="515.0" type="line"/>
      <point x="333.6656166888408" y="690.0" type="line"/>
      <point x="231.66561668884083" y="690.0" type="line"/>
    </contour>
    <component base="period" xOffset="50"/>
  </outline>
</glyph>
<glyph name="quotedbl" format="1">
  <advance width="402"/>
  <unicode hex="0022"/>
  <outline>
    <contour>
      <point x="191.95542611009478" y="720.0" type="line"/>
      <point x="164.87368093297854" y="470.0" type="line"/>
      <point x="232.87368093297854" y="470.0" type="line"/>
      <point x="293.9554261100948" y="720.0" type="line"/>
    </contour>
    <contour>
      <point x="361.9554261100948" y="720.0" type="line"/>
      <point x="334.8736809329786" y="470.0" type="line"/>
      <point x="402.8736809329786" y="470.0" type="line"/>
      <point x="463.9554261100948" y="720.0" type="line"/>
    </contour>
  </outline>
</glyph>
<glyph name="numbersign" format="1">
  <advance width="738"/>
  <unicode hex="0023"/>
  <outline>
    <contour>
      <point x="100.61805010310992" y="202.0" type="line"/>
      <point x="656.6180501031099" y="202.0" type="line"/>
      <point x="670.0189006369533" y="278.0" type="line"/>
      <point x="114.01890063695326" y="278.0" type="line"/>
    </contour>
    <contour>
      <point x="117.0" y="0.0" type="line"/>
      <point x="203.0" y="0.0" type="line"/>
      <point x="492.6656166888408" y="690.0" type="line"/>
      <point x="406.6656166888408" y="690.0" type="line"/>
    </contour>
    <contour>
      <point x="189.64671605188755" y="412.0" type="line"/>
      <point x="745.6467160518876" y="412.0" type="line"/>
      <point x="759.0475665857309" y="488.0" type="line"/>
      <point x="203.04756658573092" y="488.0" type="line"/>
    </contour>
    <contour>
      <point x="367.0" y="0.0" type="line"/>
      <point x="453.0" y="0.0" type="line"/>
      <point x="742.6656166888408" y="690.0" type="line"/>
      <point x="656.6656166888408" y="690.0" type="line"/>
    </contour>
  </outline>
</glyph>
<glyph name="dollar" format="1">
  <advance width="660"/>
  <unicode hex="0024"/>
  <outline>
    <contour>
      <point x="84.57473618659571" y="94.0" type="line"/>
      <point x="135.81879036337935" y="33.0"/>
      <point x="236.23673019291536" y="-10.0"/>
      <point x="336.23673019291533" y="-10.0" type="curve"/>
      <point x="496.23673019291533" y="-10.0"/>
      <point x="600.4008505338434" y="76.0"/>
      <point x="619.2678374696491" y="183.0" type="curve"/>
      <point x="634.784611771994" y="271.0"/>
      <point x="586.7144432479628" y="350.0"/>
      <point x="419.0597732255114" y="403.0" type="curve" smooth="yes"/>
      <point x="301.5838715117246" y="440.0"/>
      <point x="275.1079697979378" y="477.0"/>
      <point x="283.04268392981874" y="522.0" type="curve"/>
      <point x="291.85903296524197" y="572.0"/>
      <point x="344.7937470971229" y="617.0"/>
      <point x="433.7937470971229" y="617.0" type="curve" smooth="yes"/>
      <point x="504.7937470971229" y="617.0"/>
      <point x="561.8565916372859" y="589.0"/>
      <point x="603.3928965632796" y="541.0" type="curve"/>
      <point x="671.0884391742891" y="613.0" type="line"/>
      <point x="616.7864231132546" y="668.0"/>
      <point x="534.4288864959254" y="700.0"/>
      <point x="455.4288864959255" y="700.0" type="curve"/>
      <point x="316.4288864959255" y="700.0"/>
      <point x="206.44109313570596" y="615.0"/>
      <point x="188.27941412273407" y="512.0" type="curve"/>
      <point x="173.1152937818061" y="426.0"/>
      <point x="211.30138607433892" y="359.0"/>
      <point x="374.13238307749873" y="307.0" type="curve" smooth="yes"/>
      <point x="498.07930384916017" y="267.0"/>
      <point x="527.4972436786961" y="224.0"/>
      <point x="518.1519137011475" y="171.0" type="curve"/>
      <point x="509.1592376850158" y="120.0"/>
      <point x="452.5771775145518" y="77.0"/>
      <point x="359.5771775145518" y="77.0" type="curve"/>
      <point x="269.5771775145518" y="77.0"/>
      <point x="201.04331391651422" y="108.0"/>
      <point x="152.7412978554798" y="163.0" type="curve"/>
    </contour>
    <contour>
      <point x="285.3673019291535" y="-100.0" type="line"/>
      <point x="361.3673019291535" y="-100.0" type="line"/>
      <point x="438.9511734408781" y="340.0" type="line"/>
      <point x="367.18302097788126" y="364.0" type="line"/>
    </contour>
    <contour>
      <point x="367.18302097788126" y="364.0" type="line"/>
      <point x="438.9511734408781" y="340.0" type="line"/>
      <point x="518.2983147596874" y="790.0" type="line"/>
      <point x="442.29831475968734" y="790.0" type="line"/>
    </contour>
  </outline>
</glyph>
<glyph name="asterisk" format="1">
  <advance width="598"/>
  <unicode hex="002A"/>
  <outline>
    <contour>
      <point x="156.16104902627637" y="517.0" type="line"/>
      <point x="334.8736809329786" y="470.0" type="line"/>
      <point x="187.30626873025113" y="325.0" type="line"/>
      <point x="250.96093875270248" y="272.0" type="line"/>
      <point x="374.1152937818061" y="426.0" type="line"/>
      <point x="442.9609387527025" y="272.0" type="line"/>
      <point x="525.3062687302511" y="325.0" type="line"/>
      <point x="428.8736809329786" y="470.0" type="line"/>
      <point x="624.1610490262764" y="517.0" type="line"/>
      <point x="611.148842386496" y="602.0" type="line"/>
      <point x="424.6296267561949" y="531.0" type="line"/>
      <point x="470.9554261100948" y="720.0" type="line"/>
      <point x="380.9554261100948" y="720.0" type="line"/>
      <point x="360.6296267561949" y="531.0" type="line"/>
      <point x="199.14884238649591" y="602.0" type="line"/>
    </contour>
  </outline>
</glyph>
<glyph name="plus" format="1">
  <advance width="660"/>
  <unicode hex="002B"/>
  <outline>
    <contour>
      <point x="147.08174517711626" y="250.0" type="line"/>
      <point x="601.0817451771162" y="250.0" type="line"/>
      <point x="615.1879036337934" y="330.0" type="line"/>
      <point x="161.18790363379344" y="330.0" type="line"/>
    </contour>
    <contour>
      <point x="300.4612537460502" y="65.0" type="line"/>
      <point x="382.4612537460502" y="65.0" type="line"/>
      <point x="461.8083950648595" y="515.0" type="line"/>
      <point x="379.8083950648595" y="515.0" type="line"/>
    </contour>
  </outline>
</glyph>
<glyph name="one" format="1">
  <advance width="660"/>
  <unicode hex="0031"/>
  <outline>
    <contour>
      <point x="112.0" y="0.0" type="line"/>
      <point x="548.0" y="0.0" type="line"/>
      <point x="562.2824854373856" y="81.0" type="line"/>
      <point x="126.28248543738566" y="81.0" type="line"/>
    </contour>
    <contour>
      <point x="217.6198614443705" y="599.0" type="line"/>
      <point x="237.86635694911024" y="521.0" type="line"/>
      <point x="448.38313125145515" y="609.0" type="line"/>
      <point x="434.6656166888408" y="690.0" type="line"/>
    </contour>
    <contour>
      <point x="287.0" y="0.0" type="line"/>
      <point x="383.0" y="0.0" type="line"/>
      <point x="504.6656166888408" y="690.0" type="line"/>
      <point x="434.6656166888408" y="690.0" type="line"/>
      <point x="399.32028671129217" y="637.0" type="line"/>
    </contour>
  </outline>
</glyph>
<glyph name="two" format="1">
  <advance width="660"/>
  <unicode hex="0032"/>
  <outline>
    <contour>
      <point x="186.6802646565774" y="588.0" type="curve"/>
      <point x="240.21901091052717" y="523.0" type="line"/>
      <point x="297.0933218302012" y="579.0"/>
      <point x="350.38313125145515" y="609.0"/>
      <point x="421.38313125145515" y="609.0" type="curve"/>
      <point x="508.38313125145515" y="609.0"/>
      <point x="544.3324933510727" y="552.0"/>
      <point x="533.0475665857309" y="488.0" type="curve"/>
      <point x="523.5259096274738" y="434.0"/>
      <point x="496.70711926409444" y="401.0"/>
      <point x="396.71932590387496" y="316.0" type="curve" smooth="yes"/>
      <point x="103.63758072675869" y="66.0" type="line"/>
      <point x="143.0" y="0.0" type="line"/>
      <point x="449.08174517711626" y="250.0" type="line" smooth="yes"/>
      <point x="576.4197511707966" y="354.0"/>
      <point x="620.0573318975553" y="420.0"/>
      <point x="632.0475665857309" y="488.0" type="curve"/>
      <point x="654.0884391742891" y="613.0"/>
      <point x="568.4288864959254" y="700.0"/>
      <point x="440.4288864959255" y="700.0" type="curve" smooth="yes"/>
      <point x="343.4288864959255" y="700.0"/>
      <point x="262.1994802868784" y="659.0"/>
    </contour>
    <contour>
      <point x="92.0" y="0.0" type="line"/>
      <point x="556.0" y="0.0" type="line"/>
      <point x="571.164120340928" y="86.0" type="line"/>
      <point x="153.16412034092798" y="86.0" type="line"/>
      <point x="103.63758072675869" y="66.0" type="line"/>
    </contour>
  </outline>
</glyph>
<glyph name="three" format="1">
  <advance width="660"/>
  <unicode hex="0033"/>
  <outline>
    <contour>
      <point x="87.81146637951106" y="84.0" type="line"/>
      <point x="139.5265396141693" y="20.0"/>
      <point x="211.23673019291536" y="-10.0"/>
      <point x="307.23673019291533" y="-10.0" type="curve"/>
      <point x="444.23673019291533" y="-10.0"/>
      <point x="573.6375807267586" y="66.0"/>
      <point x="598.1470310452353" y="205.0" type="curve" smooth="yes"/>
      <point x="621.951173440878" y="340.0"/>
      <point x="531.9414081290537" y="408.0"/>
      <point x="394.9414081290537" y="408.0" type="curve" smooth="yes"/>
      <point x="335.9414081290537" y="408.0" type="line"/>
      <point x="279.76752247630134" y="390.0" type="line"/>
      <point x="269.011576653085" y="329.0" type="line"/>
      <point x="352.011576653085" y="329.0" type="line" smooth="yes"/>
      <point x="449.011576653085" y="329.0"/>
      <point x="512.9005355404956" y="283.0"/>
      <point x="499.14703104523534" y="205.0" type="curve" smooth="yes"/>
      <point x="484.68821862714117" y="123.0"/>
      <point x="409.2824854373857" y="81.0"/>
      <point x="323.2824854373857" y="81.0" type="curve"/>
      <point x="252.28248543738567" y="81.0"/>
      <point x="200.1616790129719" y="103.0"/>
      <point x="164.80170106768668" y="152.0" type="curve"/>
    </contour>
    <contour>
      <point x="200.6198614443705" y="599.0" type="line"/>
      <point x="595.6198614443705" y="599.0" type="line"/>
      <point x="649.0280359620822" y="624.0" type="line"/>
      <point x="660.6656166888408" y="690.0" type="line"/>
      <point x="216.66561668884083" y="690.0" type="line"/>
    </contour>
    <contour>
      <point x="279.76752247630134" y="390.0" type="line"/>
      <point x="384.76752247630134" y="390.0" type="line"/>
      <point x="649.0280359620822" y="624.0" type="line"/>
      <point x="611.6656166888408" y="690.0" type="line"/>
    </contour>
  </outline>
</glyph>
<glyph name="five" format="1">
  <advance width="660"/>
  <unicode hex="0035"/>
  <outline>
    <contour>
      <point x="96.81146637951106" y="84.0" type="line"/>
      <point x="148.5265396141693" y="20.0"/>
      <point x="220.23673019291536" y="-10.0"/>
      <point x="316.23673019291533" y="-10.0" type="curve"/>
      <point x="463.23673019291533" y="-10.0"/>
      <point x="585.1061584566772" y="80.0"/>
      <point x="608.0286659487776" y="210.0" type="curve" smooth="yes"/>
      <point x="631.4801543830035" y="343.0"/>
      <point x="551.115293781806" y="426.0"/>
      <point x="426.1152937818061" y="426.0" type="curve"/>
      <point x="358.1152937818061" y="426.0"/>
      <point x="294.70711926409444" y="401.0"/>
      <point x="245.12505909363045" y="358.0" type="curve"/>
      <point x="219.78217044403792" y="288.0" type="line"/>
      <point x="273.30626873025113" y="325.0"/>
      <point x="321.30382740229504" y="342.0"/>
      <point x="378.30382740229504" y="342.0" type="curve"/>
      <point x="470.30382740229504" y="342.0"/>
      <point x="522.429516482621" y="286.0"/>
      <point x="509.02866594877764" y="210.0" type="curve" smooth="yes"/>
      <point x="495.2751614535174" y="132.0"/>
      <point x="424.2824854373857" y="81.0"/>
      <point x="332.2824854373857" y="81.0" type="curve"/>
      <point x="261.2824854373857" y="81.0"/>
      <point x="209.1616790129719" y="103.0"/>
      <point x="173.80170106768668" y="152.0" type="curve"/>
    </contour>
    <contour>
      <point x="179.60096080741727" y="321.0" type="line"/>
      <point x="219.78217044403792" y="288.0" type="line"/>
      <point x="273.7144432479627" y="350.0" type="line"/>
      <point x="351.6656166888408" y="690.0" type="line"/>
      <point x="262.6656166888408" y="690.0" type="line"/>
    </contour>
    <contour>
      <point x="262.6656166888408" y="690.0" type="line"/>
      <point x="296.2672074829536" y="597.0" type="line"/>
      <point x="631.2672074829536" y="597.0" type="line"/>
      <point x="647.6656166888408" y="690.0" type="line"/>
    </contour>
  </outline>
</glyph>
<glyph name="seven" format="1">
  <advance width="660"/>
  <unicode hex="0037"/>
  <outline>
    <contour>
      <point x="195.6198614443705" y="599.0" type="line"/>
      <point x="600.6198614443705" y="599.0" type="line"/>
      <point x="654.0280359620822" y="624.0" type="line"/>
      <point x="665.6656166888408" y="690.0" type="line"/>
      <point x="211.66561668884083" y="690.0" type="line"/>
    </contour>
    <contour>
      <point x="196.0" y="0.0" type="line"/>
      <point x="302.0" y="0.0" type="line"/>
      <point x="654.0280359620822" y="624.0" type="line"/>
      <point x="600.6656166888408" y="690.0" type="line"/>
    </contour>
  </outline>
</glyph>
<glyph name="nine" format="1">
  <advance width="660"/>
  <unicode hex="0039"/>
  <outline>
    <contour>
      <point x="166.9920460294362" y="465.0" type="curve" smooth="yes"/>
      <point x="143.71688457591884" y="333.0"/>
      <point x="220.72909121569933" y="248.0"/>
      <point x="344.7290912156993" y="248.0" type="curve" smooth="yes"/>
      <point x="417.7290912156993" y="248.0"/>
      <point x="495.429516482621" y="286.0"/>
      <point x="545.0091353251289" y="346.0" type="curve"/>
      <point x="558.0573318975553" y="420.0" type="line"/>
      <point x="507.24098286213206" y="370.0"/>
      <point x="444.9511734408781" y="340.0"/>
      <point x="376.9511734408781" y="340.0" type="curve" smooth="yes"/>
      <point x="301.9511734408781" y="340.0"/>
      <point x="252.76752247630134" y="390.0"/>
      <point x="266.5210269715616" y="468.0" type="curve" smooth="yes"/>
      <point x="281.3324933510727" y="552.0"/>
      <point x="354.26476615499746" y="614.0"/>
      <point x="427.26476615499746" y="614.0" type="curve"/>
      <point x="521.2647661549975" y="614.0"/>
      <point x="572.4532997754865" y="530.0"/>
      <point x="544.240982862132" y="370.0" type="curve"/>
      <point x="507.38864389406285" y="161.0"/>
      <point x="389.92983147596874" y="79.0"/>
      <point x="298.92983147596874" y="79.0" type="curve"/>
      <point x="245.92983147596874" y="79.0"/>
      <point x="215.75106316730418" y="95.0"/>
      <point x="185.33556466572426" y="121.0" type="curve"/>
      <point x="122.22940620904707" y="41.0" type="line"/>
      <point x="163.23428886495927" y="7.0"/>
      <point x="215.23673019291536" y="-10.0"/>
      <point x="273.23673019291533" y="-10.0" type="curve"/>
      <point x="424.23673019291533" y="-10.0"/>
      <point x="598.4539297621819" y="116.0"/>
      <point x="643.240982862132" y="370.0" type="curve"/>
      <point x="680.2696488109096" y="580.0"/>
      <point x="593.4288864959254" y="700.0"/>
      <point x="447.4288864959255" y="700.0" type="curve"/>
      <point x="316.4288864959255" y="700.0"/>
      <point x="191.32516936720438" y="603.0"/>
    </contour>
  </outline>
</glyph>
<glyph name="less" format="1">
  <advance width="660"/>
  <unicode hex="003C"/>
  <outline>
    <contour>
      <point x="146.7870530999501" y="254.0" type="line"/>
      <point x="536.6979839389655" y="55.0" type="line"/>
      <point x="553.0963931448529" y="148.0" type="line"/>
      <point x="237.77972911608182" y="305.0" type="line"/>
      <point x="156.13238307749873" y="307.0" type="line"/>
    </contour>
    <contour>
      <point x="151.54788157907865" y="281.0" type="line"/>
      <point x="233.3715545983702" y="280.0" type="line"/>
      <point x="603.7022366081823" y="435.0" type="line"/>
      <point x="619.5716648719441" y="525.0" type="line"/>
      <point x="159.48259571095957" y="326.0" type="line"/>
    </contour>
  </outline>
</glyph>
<glyph name="equal" format="1">
  <advance width="660"/>
  <unicode hex="003D"/>
  <outline>
    <contour>
      <point x="125.92250749210045" y="130.0" type="line"/>
      <point x="579.9225074921004" y="130.0" type="line"/>
      <point x="594.0286659487776" y="210.0" type="line"/>
      <point x="140.02866594877764" y="210.0" type="line"/>
    </contour>
    <contour>
      <point x="168.24098286213206" y="370.0" type="line"/>
      <point x="622.240982862132" y="370.0" type="line"/>
      <point x="636.3471413188092" y="450.0" type="line"/>
      <point x="182.34714131880924" y="450.0" type="line"/>
    </contour>
  </outline>
</glyph>
<glyph name="greater" format="1">
  <advance width="660"/>
  <unicode hex="003E"/>
  <outline>
    <contour>
      <point x="142.69798393896556" y="55.0" type="line"/>
      <point x="602.7870530999501" y="254.0" type="line"/>
      <point x="610.721767231831" y="299.0" type="line"/>
      <point x="528.8980942125395" y="300.0" type="line"/>
      <point x="158.5674122027274" y="145.0" type="line"/>
    </contour>
    <contour>
      <point x="209.1732556660569" y="432.0" type="line"/>
      <point x="524.4899196948279" y="275.0" type="line"/>
      <point x="606.1372657334109" y="273.0" type="line"/>
      <point x="615.4825957109596" y="326.0" type="line"/>
      <point x="225.5716648719441" y="525.0" type="line"/>
    </contour>
  </outline>
</glyph>
<glyph name="question" format="1">
  <advance width="508"/>
  <unicode hex="003F"/>
  <outline>
    <contour>
      <point x="128.6802646565774" y="588.0" type="curve"/>
      <point x="180.04268392981874" y="522.0" type="line"/>
      <point x="232.91699484949277" y="578.0"/>
      <point x="282.38313125145515" y="609.0"/>
      <point x="350.38313125145515" y="609.0" type="curve"/>
      <point x="412.38313125145515" y="609.0"/>
      <point x="448.97739806169966" y="567.0"/>
      <point x="438.92676016131713" y="510.0" type="curve"/>
      <point x="430.46306508731084" y="462.0"/>
      <point x="392.1732556660569" y="432.0"/>
      <point x="326.12017643771827" y="392.0" type="curve" smooth="yes"/>
      <point x="278.00669399717276" y="363.0"/>
      <point x="249.8352496723765" y="328.0"/>
      <point x="245.13726573341094" y="273.0" type="curve" smooth="yes"/>
      <point x="240.02866594877764" y="210.0" type="line"/>
      <point x="319.02866594877764" y="210.0" type="line"/>
      <point x="330.8450149842009" y="260.0" type="line" smooth="yes"/>
      <point x="341.60340213537336" y="304.0"/>
      <point x="353.42463382670877" y="320.0"/>
      <point x="396.4801543830035" y="343.0" type="curve" smooth="yes"/>
      <point x="469.3569066306336" y="382.0"/>
      <point x="525.4075445310161" y="439.0"/>
      <point x="537.9267601613171" y="510.0" type="curve"/>
      <point x="558.3806899234991" y="626.0"/>
      <point x="480.4288864959255" y="700.0"/>
      <point x="369.4288864959255" y="700.0" type="curve"/>
      <point x="275.4288864959255" y="700.0"/>
      <point x="200.1994802868784" y="659.0"/>
    </contour>
    <component base="period" xOffset="132"/>
  </outline>
</glyph>
<glyph name="at" format="1">
  <advance width="982"/>
  <unicode hex="0040"/>
  <outline>
    <contour>
      <point x="109.43439913853317" y="252.0" type="curve"/>
      <point x="62.355095289373025" y="-15.0"/>
      <point x="192.61623876184933" y="-195.0"/>
      <point x="471.61623876184933" y="-195.0" type="curve"/>
      <point x="564.6162387618493" y="-195.0"/>
      <point x="664.8480862988525" y="-171.0"/>
      <point x="733.6668766622319" y="-138.0" type="curve"/>
      <point x="715.3624192732414" y="-66.0" type="line"/>
      <point x="638.5436289098619" y="-99.0"/>
      <point x="566.0170892956927" y="-119.0"/>
      <point x="485.01708929569264" y="-119.0" type="curve"/>
      <point x="254.01708929569267" y="-119.0"/>
      <point x="153.17144432479628" y="35.0"/>
      <point x="190.90541819640777" y="249.0" type="curve"/>
      <point x="230.93164281722932" y="476.0"/>
      <point x="402.02803596208213" y="624.0"/>
      <point x="612.0280359620822" y="624.0" type="curve"/>
      <point x="828.0280359620822" y="624.0"/>
      <point x="917.1683730101447" y="466.0"/>
      <point x="880.6686880034924" y="259.0" type="curve"/>
      <point x="856.3355646657243" y="121.0"/>
      <point x="804.6375807267586" y="66.0"/>
      <point x="750.6375807267586" y="66.0" type="curve"/>
      <point x="719.6375807267586" y="66.0"/>
      <point x="699.164120340928" y="86.0"/>
      <point x="707.4514884342259" y="133.0" type="curve"/>
      <point x="749.7699638042575" y="373.0" type="line" smooth="yes"/>
      <point x="754.7071192640944" y="401.0"/>
      <point x="760.4099858589723" y="422.0"/>
      <point x="770.5234682995177" y="451.0" type="curve"/>
      <point x="786.2818554506902" y="495.0" type="line"/>
      <point x="700.2818554506902" y="495.0" type="line"/>
      <point x="663.530792283386" y="400.0" type="line"/>
      <point x="656.0066939971728" y="363.0" type="line"/>
      <point x="618.8017010676866" y="152.0" type="line"/>
      <point x="613.2776027814734" y="115.0" type="line"/>
      <point x="611.2318475370032" y="24.0"/>
      <point x="669.2367301929154" y="-10.0"/>
      <point x="733.2367301929154" y="-10.0" type="curve"/>
      <point x="821.2367301929154" y="-10.0"/>
      <point x="926.874310919674" y="56.0"/>
      <point x="962.6686880034924" y="259.0" type="curve"/>
      <point x="1007.4557411034425" y="513.0"/>
      <point x="882.4288864959254" y="700.0"/>
      <point x="625.4288864959254" y="700.0" type="curve"/>
      <point x="372.4288864959255" y="700.0"/>
      <point x="155.98472204556793" y="516.0"/>
    </contour>
    <contour>
      <point x="307.61072611924163" y="253.0" type="curve" smooth="yes"/>
      <point x="280.80902505155495" y="101.0"/>
      <point x="346.76326980708467" y="10.0"/>
      <point x="446.76326980708467" y="10.0" type="curve" smooth="yes"/>
      <point x="508.76326980708467" y="10.0"/>
      <point x="574.6400220547148" y="49.0"/>
      <point x="625.5143329743888" y="105.0" type="curve"/>
      <point x="637.680894643273" y="174.0" type="line"/>
      <point x="588.0408725885582" y="125.0"/>
      <point x="533.7510631673042" y="95.0"/>
      <point x="486.75106316730415" y="95.0" type="curve" smooth="yes"/>
      <point x="422.75106316730415" y="95.0"/>
      <point x="383.8017010676867" y="152.0"/>
      <point x="402.13970706136706" y="256.0" type="curve" smooth="yes"/>
      <point x="419.948732112922" y="357.0"/>
      <point x="479.467947743223" y="428.0"/>
      <point x="556.467947743223" y="428.0" type="curve" smooth="yes"/>
      <point x="611.467947743223" y="428.0"/>
      <point x="658.6515987077997" y="378.0"/>
      <point x="638.3739959263263" y="263.0" type="curve"/>
      <point x="680.1372657334109" y="273.0" type="line"/>
      <point x="709.760198492433" y="441.0"/>
      <point x="636.0451252577748" y="505.0"/>
      <point x="555.0451252577748" y="505.0" type="curve" smooth="yes"/>
      <point x="432.0451252577748" y="505.0"/>
      <point x="335.4703890711791" y="411.0"/>
    </contour>
  </outline>
</glyph>
<glyph name="A" format="1">
  <advance width="656"/>
  <unicode hex="0041"/>
  <outline>
    <contour>
      <point x="20.0" y="0.0" type="line"/>
      <point x="120.0" y="0.0" type="line"/>
      <point x="448.796188425079" y="600.0" type="line"/>
      <point x="456.6656166888408" y="690.0" type="line"/>
      <point x="409.6656166888408" y="690.0" type="line"/>
    </contour>
    <contour>
      <point x="184.2074342574422" y="194.0" type="line"/>
      <point x="540.2074342574422" y="194.0" type="line"/>
      <point x="555.3715545983702" y="280.0" type="line"/>
      <point x="199.3715545983702" y="280.0" type="line"/>
    </contour>
    <contour>
      <point x="414.796188425079" y="600.0" type="line"/>
      <point x="532.0" y="0.0" type="line"/>
      <point x="636.0" y="0.0" type="line"/>
      <point x="489.6656166888408" y="690.0" type="line"/>
      <point x="434.6656166888408" y="690.0" type="line"/>
    </contour>
    <contour>
      <point x="449.6656166888408" y="690.0" type="move" name="top"/>
    </contour>
    <contour>
      <point x="328.0" y="0.0" type="move" name="bottom"/>
    </contour>
  </outline>
</glyph>
<glyph name="B" format="1">
  <advance width="657"/>
  <unicode hex="0042"/>
  <outline>
    <contour>
      <point x="100.0" y="0.0" type="line"/>
      <point x="196.0" y="0.0" type="line"/>
      <point x="317.6656166888408" y="690.0" type="line"/>
      <point x="221.66561668884083" y="690.0" type="line"/>
    </contour>
    <contour>
      <point x="150.0" y="0.0" type="line"/>
      <point x="358.0" y="0.0" type="line" smooth="yes"/>
      <point x="484.0" y="0.0"/>
      <point x="598.9902346881756" y="68.0"/>
      <point x="621.3837612381507" y="195.0" type="curve" smooth="yes"/>
      <point x="642.5429989231665" y="315.0"/>
      <point x="551.0042526692167" y="380.0"/>
      <point x="425.0042526692167" y="380.0" type="curve" smooth="yes"/>
      <point x="217.0042526692167" y="380.0" type="line"/>
      <point x="205.366671942458" y="314.0" type="line"/>
      <point x="408.366671942458" y="314.0" type="line" smooth="yes"/>
      <point x="485.366671942458" y="314.0"/>
      <point x="536.1372657334109" y="273.0"/>
      <point x="523.265396141693" y="200.0" type="curve" smooth="yes"/>
      <point x="510.2171995692666" y="126.0"/>
      <point x="443.81146637951105" y="84.0"/>
      <point x="367.81146637951105" y="84.0" type="curve" smooth="yes"/>
      <point x="164.81146637951105" y="84.0" type="line"/>
    </contour>
    <contour>
      <point x="209.06953853733577" y="335.0" type="line"/>
      <point x="399.06953853733575" y="335.0" type="line"/>
      <point x="520.0695385373358" y="335.0"/>
      <point x="628.6491573798437" y="395.0"/>
      <point x="648.0451252577748" y="505.0" type="curve" smooth="yes"/>
      <point x="669.2043629427906" y="625.0"/>
      <point x="582.6656166888408" y="690.0"/>
      <point x="461.6656166888408" y="690.0" type="curve" smooth="yes"/>
      <point x="271.6656166888408" y="690.0" type="line"/>
      <point x="256.8541503093298" y="606.0" type="line"/>
      <point x="441.8541503093298" y="606.0" type="line" smooth="yes"/>
      <point x="513.8541503093297" y="606.0"/>
      <point x="559.9773980616997" y="567.0"/>
      <point x="548.1634903542325" y="500.0" type="curve" smooth="yes"/>
      <point x="536.3495826467654" y="433.0"/>
      <point x="475.82548436055214" y="396.0"/>
      <point x="404.82548436055214" y="396.0" type="curve" smooth="yes"/>
      <point x="219.82548436055214" y="396.0" type="line"/>
    </contour>
  </outline>
</glyph>
<glyph name="D" format="1">
  <advance width="701"/>
  <unicode hex="0044"/>
  <outline>
    <contour>
      <point x="100.0" y="0.0" type="line"/>
      <point x="196.0" y="0.0" type="line"/>
      <point x="317.6656166888408" y="690.0" type="line"/>
      <point x="221.66561668884083" y="690.0" type="line"/>
    </contour>
    <contour>
      <point x="150.0" y="0.0" type="line"/>
      <point x="323.0" y="0.0" type="line" smooth="yes"/>
      <point x="500.0" y="0.0"/>
      <point x="662.6882186271412" y="123.00000000000003"/>
      <point x="701.8328083444204" y="345.0" type="curve" smooth="yes"/>
      <point x="740.9773980616997" y="567.0"/>
      <point x="621.6656166888408" y="690.0"/>
      <point x="444.6656166888408" y="690.0" type="curve" smooth="yes"/>
      <point x="271.6656166888408" y="690.0" type="line"/>
      <point x="256.50149634791285" y="604.0" type="line"/>
      <point x="424.50149634791285" y="604.0" type="line" smooth="yes"/>
      <point x="552.5014963479128" y="604.0"/>
      <point x="632.1030871420256" y="511.0"/>
      <point x="602.8328083444204" y="345.0" type="curve" smooth="yes"/>
      <point x="573.5625295468152" y="179.0"/>
      <point x="461.164120340928" y="86.0"/>
      <point x="333.164120340928" y="86.0" type="curve" smooth="yes"/>
      <point x="165.16412034092798" y="86.0" type="line"/>
    </contour>
    <contour>
      <point x="429.6656166888408" y="690.0" type="move" name="top"/>
    </contour>
  </outline>
</glyph>
<glyph name="I" format="1">
  <advance width="436"/>
  <unicode hex="0049"/>
  <outline>
    <contour>
      <point x="70.0" y="0.0" type="line"/>
      <point x="366.0" y="0.0" type="line"/>
      <point x="380.2824854373857" y="81.0" type="line"/>
      <point x="84.28248543738566" y="81.0" type="line"/>
    </contour>
    <contour>
      <point x="177.38313125145515" y="609.0" type="line"/>
      <point x="473.38313125145515" y="609.0" type="line"/>
      <point x="487.6656166888408" y="690.0" type="line"/>
      <point x="191.66561668884083" y="690.0" type="line"/>
    </contour>
    <contour>
      <point x="170.0" y="0.0" type="line"/>
      <point x="266.0" y="0.0" type="line"/>
      <point x="387.6656166888408" y="690.0" type="line"/>
      <point x="291.6656166888408" y="690.0" type="line"/>
    </contour>
    <contour>
      <point x="339.6656166888408" y="690.0" type="move" name="top"/>
    </contour>
    <contour>
      <point x="218.0" y="0.0" type="move" name="bottom"/>
    </contour>
  </outline>
</glyph>
<glyph name="K" format="1">
  <advance width="641.0"/>
  <unicode hex="004B"/>
  <outline>
    <contour>
      <point x="100.0" y="0.0" type="line"/>
      <point x="196.0" y="0.0" type="line"/>
      <point x="317.6656166888408" y="690.0" type="line"/>
      <point x="221.66561668884083" y="690.0" type="line"/>
    </contour>
    <contour>
      <point x="216.49968500665224" y="207.0" type="line"/>
      <point x="727.6656166888408" y="690.0" type="line"/>
      <point x="610.6656166888408" y="690.0" type="line"/>
      <point x="238.3642306145019" y="331.0" type="line"/>
    </contour>
    <contour>
      <point x="328.7168845759188" y="333.0" type="line"/>
      <point x="507.0" y="0.0" type="line"/>
      <point x="626.0" y="0.0" type="line"/>
      <point x="401.88344624480294" y="402.0" type="line"/>
    </contour>
  </outline>
</glyph>
<glyph name="M" format="1">
  <advance width="836"/>
  <unicode hex="004D"/>
  <outline>
    <contour>
      <point x="100.0" y="0.0" type="line"/>
      <point x="196.0" y="0.0" type="line"/>
      <point x="317.6656166888408" y="690.0" type="line"/>
      <point x="221.66561668884083" y="690.0" type="line"/>
    </contour>
    <contour>
      <point x="264.6656166888408" y="690.0" type="line"/>
      <point x="415.33068200981205" y="155.0" type="line"/>
      <point x="457.33068200981205" y="155.0" type="line"/>
      <point x="480.08174517711626" y="250.0" type="line"/>
      <point x="362.6656166888408" y="690.0" type="line"/>
    </contour>
    <contour>
      <point x="444.08174517711626" y="250.0" type="line"/>
      <point x="433.33068200981205" y="155.0" type="line"/>
      <point x="475.33068200981205" y="155.0" type="line"/>
      <point x="814.6656166888408" y="690.0" type="line"/>
      <point x="716.6656166888408" y="690.0" type="line"/>
    </contour>
    <contour>
      <point x="640.0" y="0.0" type="line"/>
      <point x="736.0" y="0.0" type="line"/>
      <point x="857.6656166888408" y="690.0" type="line"/>
      <point x="761.6656166888408" y="690.0" type="line"/>
    </contour>
  </outline>
</glyph>
<glyph name="N" format="1">
  <advance width="746"/>
  <unicode hex="004E"/>
  <outline>
    <contour>
      <point x="100.0" y="0.0" type="line"/>
      <point x="196.0" y="0.0" type="line"/>
      <point x="317.6656166888408" y="690.0" type="line"/>
      <point x="221.66561668884083" y="690.0" type="line"/>
    </contour>
    <contour>
      <point x="265.6656166888408" y="690.0" type="line"/>
      <point x="500.0" y="0.0" type="line"/>
      <point x="602.0" y="0.0" type="line"/>
      <point x="367.6656166888408" y="690.0" type="line"/>
    </contour>
    <contour>
      <point x="550.0" y="0.0" type="line"/>
      <point x="646.0" y="0.0" type="line"/>
      <point x="767.6656166888408" y="690.0" type="line"/>
      <point x="671.6656166888408" y="690.0" type="line"/>
    </contour>
    <contour>
      <point x="510.6656166888408" y="690.0" type="move" name="top"/>
    </contour>
  </outline>
</glyph>
<glyph name="O" format="1">
  <advance width="726"/>
  <unicode hex="004F"/>
  <outline>
    <contour>
      <point x="120.83280834442041" y="345.0" type="curve" smooth="yes"/>
      <point x="79.74862183934808" y="112.0"/>
      <point x="195.23673019291536" y="-10.0"/>
      <point x="361.23673019291533" y="-10.0" type="curve" smooth="yes"/>
      <point x="527.2367301929154" y="-10.0"/>
      <point x="685.7486218393481" y="112.0"/>
      <point x="726.8328083444204" y="345.0" type="curve" smooth="yes"/>
      <point x="767.9169948494928" y="578.0"/>
      <point x="652.4288864959254" y="700.0"/>
      <point x="486.4288864959255" y="700.0" type="curve" smooth="yes"/>
      <point x="320.4288864959255" y="700.0"/>
      <point x="161.91699484949277" y="578.0"/>
    </contour>
    <contour>
      <point x="219.8328083444204" y="345.0" type="curve" smooth="yes"/>
      <point x="251.04268392981874" y="522.0"/>
      <point x="353.7357852128721" y="611.0"/>
      <point x="470.7357852128721" y="611.0" type="curve" smooth="yes"/>
      <point x="587.7357852128721" y="611.0"/>
      <point x="659.0426839298187" y="522.0"/>
      <point x="627.8328083444204" y="345.0" type="curve" smooth="yes"/>
      <point x="596.6229327590221" y="168.0"/>
      <point x="493.92983147596874" y="79.0"/>
      <point x="376.92983147596874" y="79.0" type="curve" smooth="yes"/>
      <point x="259.92983147596874" y="79.0"/>
      <point x="188.62293275902212" y="168.0"/>
    </contour>
    <contour>
      <point x="484.6656166888408" y="690.0" type="move" name="top"/>
    </contour>
    <contour>
      <point x="363.0" y="0.0" type="move" name="bottom"/>
    </contour>
  </outline>
</glyph>
<glyph name="Q" format="1">
  <advance width="726"/>
  <unicode hex="0051"/>
  <outline>
    <contour>
      <point x="421.5869428263762" y="9.0" type="line"/>
      <point x="425.9566860834858" y="-108.0"/>
      <point x="491.61135610593715" y="-161.0"/>
      <point x="626.9060481831033" y="-165.0" type="curve"/>
      <point x="643.480784369699" y="-71.0" type="line"/>
      <point x="560.480784369699" y="-71.0"/>
      <point x="515.2416128488276" y="-44.0"/>
      <point x="502.34777130550475" y="36.0" type="curve"/>
    </contour>
    <component base="O"/>
  </outline>
</glyph>
<glyph name="R" format="1">
  <advance width="650"/>
  <unicode hex="0052"/>
  <outline>
    <contour>
      <point x="100.0" y="0.0" type="line"/>
      <point x="196.0" y="0.0" type="line"/>
      <point x="317.6656166888408" y="690.0" type="line"/>
      <point x="221.66561668884083" y="690.0" type="line"/>
    </contour>
    <contour>
      <point x="195.8450149842009" y="260.0" type="line"/>
      <point x="378.8450149842009" y="260.0" type="line" smooth="yes"/>
      <point x="513.8450149842009" y="260.0"/>
      <point x="636.0695385373358" y="335.0"/>
      <point x="660.7553158365208" y="475.0" type="curve" smooth="yes"/>
      <point x="685.2647661549975" y="614.0"/>
      <point x="589.6656166888408" y="690.0"/>
      <point x="454.6656166888408" y="690.0" type="curve" smooth="yes"/>
      <point x="271.6656166888408" y="690.0" type="line"/>
      <point x="256.50149634791285" y="604.0" type="line"/>
      <point x="434.50149634791285" y="604.0" type="line" smooth="yes"/>
      <point x="520.5014963479128" y="604.0"/>
      <point x="576.3904552353234" y="558.0"/>
      <point x="561.7553158365208" y="475.0" type="curve" smooth="yes"/>
      <point x="546.9438494570098" y="391.0"/>
      <point x="473.4801543830035" y="343.0"/>
      <point x="388.4801543830035" y="343.0" type="curve" smooth="yes"/>
      <point x="210.48015438300348" y="343.0" type="line"/>
    </contour>
    <contour>
      <point x="352.1348244054548" y="290.0" type="line"/>
      <point x="481.0" y="0.0" type="line"/>
      <point x="595.0" y="0.0" type="line"/>
      <point x="457.1348244054548" y="290.0" type="line"/>
    </contour>
    <contour>
      <point x="439.6656166888408" y="690.0" type="move" name="top"/>
    </contour>
  </outline>
</glyph>
<glyph name="S" format="1">
  <advance width="624"/>
  <unicode hex="0053"/>
  <outline>
    <contour>
      <point x="66.57473618659571" y="94.0" type="line"/>
      <point x="117.81879036337935" y="33.0"/>
      <point x="218.23673019291536" y="-10.0"/>
      <point x="318.23673019291533" y="-10.0" type="curve" smooth="yes"/>
      <point x="478.23673019291533" y="-10.0"/>
      <point x="582.4008505338434" y="76.0"/>
      <point x="601.2678374696491" y="183.0" type="curve" smooth="yes"/>
      <point x="616.784611771994" y="271.0"/>
      <point x="568.0091353251289" y="346.0"/>
      <point x="401.0597732255114" y="403.0" type="curve" smooth="yes"/>
      <point x="284.11285245385" y="443.0"/>
      <point x="257.1079697979378" y="477.0"/>
      <point x="265.04268392981874" y="522.0" type="curve" smooth="yes"/>
      <point x="273.85903296524197" y="572.0"/>
      <point x="326.7937470971229" y="617.0"/>
      <point x="415.7937470971229" y="617.0" type="curve" smooth="yes"/>
      <point x="486.7937470971229" y="617.0"/>
      <point x="543.8565916372859" y="589.0"/>
      <point x="585.3928965632796" y="541.0" type="curve"/>
      <point x="653.0884391742891" y="613.0" type="line"/>
      <point x="598.7864231132546" y="668.0"/>
      <point x="516.4288864959254" y="700.0"/>
      <point x="437.4288864959255" y="700.0" type="curve" smooth="yes"/>
      <point x="298.4288864959255" y="700.0"/>
      <point x="188.44109313570596" y="615.0"/>
      <point x="170.27941412273407" y="512.0" type="curve" smooth="yes"/>
      <point x="155.1152937818061" y="426.0"/>
      <point x="195.18302097788126" y="364.0"/>
      <point x="356.13238307749873" y="307.0" type="curve" smooth="yes"/>
      <point x="479.3739959263263" y="263.0"/>
      <point x="509.4972436786961" y="224.0"/>
      <point x="500.1519137011475" y="171.0" type="curve" smooth="yes"/>
      <point x="491.1592376850158" y="120.0"/>
      <point x="434.5771775145518" y="77.0"/>
      <point x="341.5771775145518" y="77.0" type="curve" smooth="yes"/>
      <point x="251.5771775145518" y="77.0"/>
      <point x="183.04331391651422" y="108.0"/>
      <point x="134.7412978554798" y="163.0" type="curve"/>
    </contour>
    <contour>
      <point x="435.6656166888408" y="690.0" type="move" name="top"/>
    </contour>
    <contour>
      <point x="320.0" y="0.0" type="move" name="bottom"/>
    </contour>
  </outline>
</glyph>
<glyph name="W" format="1">
  <advance width="961"/>
  <unicode hex="0057"/>
  <outline>
    <contour>
      <point x="141.66561668884083" y="690.0" type="line"/>
      <point x="238.0" y="0.0" type="line"/>
      <point x="293.0" y="0.0" type="line"/>
      <point x="313.92739014801265" y="96.0" type="line"/>
      <point x="243.66561668884083" y="690.0" type="line"/>
    </contour>
    <contour>
      <point x="279.92739014801265" y="96.0" type="line"/>
      <point x="271.0" y="0.0" type="line"/>
      <point x="318.0" y="0.0" type="line"/>
      <point x="593.0957631581573" y="562.0" type="line"/>
      <point x="615.6656166888408" y="690.0" type="line"/>
      <point x="563.6656166888408" y="690.0" type="line"/>
    </contour>
    <contour>
      <point x="567.0957631581573" y="562.0" type="line"/>
      <point x="644.0" y="0.0" type="line"/>
      <point x="699.0" y="0.0" type="line"/>
      <point x="719.9273901480126" y="96.0" type="line"/>
      <point x="644.6656166888408" y="690.0" type="line"/>
      <point x="589.6656166888408" y="690.0" type="line"/>
    </contour>
    <contour>
      <point x="685.9273901480126" y="96.0" type="line"/>
      <point x="677.0" y="0.0" type="line"/>
      <point x="724.0" y="0.0" type="line"/>
      <point x="1062.6656166888408" y="690.0" type="line"/>
      <point x="964.6656166888408" y="690.0" type="line"/>
    </contour>
    <contour>
      <point x="601.6656166888408" y="690.0" type="move" name="top"/>
    </contour>
  </outline>
</glyph>
<glyph name="Y" format="1">
  <advance width="616"/>
  <unicode hex="0059"/>
  <outline>
    <contour>
      <point x="136.66561668884083" y="690.0" type="line"/>
      <point x="315.60828479128554" y="270.0" type="line"/>
      <point x="370.60828479128554" y="270.0" type="line"/>
      <point x="387.12750042158655" y="341.0" type="line"/>
      <point x="246.66561668884083" y="690.0" type="line"/>
    </contour>
    <contour>
      <point x="260.0" y="0.0" type="line"/>
      <point x="356.0" y="0.0" type="line"/>
      <point x="412.42463382670877" y="320.0" type="line"/>
      <point x="316.42463382670877" y="320.0" type="line"/>
    </contour>
    <contour>
      <point x="353.12750042158655" y="341.0" type="line"/>
      <point x="348.60828479128554" y="270.0" type="line"/>
      <point x="395.60828479128554" y="270.0" type="line"/>
      <point x="722.6656166888408" y="690.0" type="line"/>
      <point x="616.6656166888408" y="690.0" type="line"/>
    </contour>
    <contour>
      <point x="431.6656166888408" y="690.0" type="move" name="top"/>
    </contour>
  </outline>
</glyph>
<glyph name="Z" format="1">
  <advance width="614"/>
  <unicode hex="005A"/>
  <outline>
    <contour>
      <point x="71.63758072675869" y="66.0" type="line"/>
      <point x="132.0" y="0.0" type="line"/>
      <point x="654.0280359620822" y="624.0" type="line"/>
      <point x="593.6656166888408" y="690.0" type="line"/>
    </contour>
    <contour>
      <point x="60.0" y="0.0" type="line"/>
      <point x="554.0" y="0.0" type="line"/>
      <point x="569.164120340928" y="86.0" type="line"/>
      <point x="121.164120340928" y="86.0" type="line"/>
      <point x="71.63758072675869" y="66.0" type="line"/>
    </contour>
    <contour>
      <point x="176.50149634791285" y="604.0" type="line"/>
      <point x="601.5014963479128" y="604.0" type="line"/>
      <point x="654.0280359620822" y="624.0" type="line"/>
      <point x="665.6656166888408" y="690.0" type="line"/>
      <point x="191.66561668884083" y="690.0" type="line"/>
    </contour>
    <contour>
      <point x="428.6656166888408" y="690.0" type="move" name="top"/>
    </contour>
  </outline>
</glyph>
<glyph name="asciicircum" format="1">
  <advance width="660"/>
  <unicode hex="005E"/>
  <outline>
    <contour>
      <point x="141.72664988774324" y="265.0" type="line"/>
      <point x="231.72664988774324" y="265.0" type="line"/>
      <point x="447.2068042707467" y="608.0" type="line"/>
      <point x="460.6656166888408" y="690.0" type="line"/>
      <point x="415.6656166888408" y="690.0" type="line"/>
    </contour>
    <contour>
      <point x="434.6656166888408" y="690.0" type="line"/>
      <point x="422.2068042707467" y="608.0" type="line"/>
      <point x="518.7266498877432" y="265.0" type="line"/>
      <point x="611.7266498877432" y="265.0" type="line"/>
      <point x="487.6656166888408" y="690.0" type="line"/>
    </contour>
  </outline>
</glyph>
<glyph name="underscore" format="1">
  <advance width="428"/>
  <unicode hex="005F"/>
  <outline>
    <contour>
      <point x="-14.106158456677198" y="-80.0" type="line"/>
      <point x="413.8938415433228" y="-80.0" type="line"/>
      <point x="428.0" y="0.0" type="line"/>
      <point x="0.0" y="0.0" type="line"/>
    </contour>
  </outline>
</glyph>
<glyph name="grave" format="1">
  <advance width="600"/>
  <unicode hex="0060"/>
  <outline>
    <contour>
      <point x="289.4819657242641" y="740.0" type="line"/>
      <point x="400.4819657242641" y="740.0" type="line"/>
      <point x="449.03291861799437" y="590.0" type="line"/>
      <point x="373.03291861799437" y="590.0" type="line"/>
    </contour>
    <contour>
      <point x="390.8083950648595" y="515.0" type="move" name="_top"/>
    </contour>
  </outline>
</glyph>
<glyph name="b" format="1">
  <advance width="586"/>
  <unicode hex="0062"/>
  <outline>
    <contour>
      <point x="75.0" y="0.0" type="line"/>
      <point x="161.0" y="0.0" type="line"/>
      <point x="197.75106316730418" y="95.0" type="line"/>
      <point x="205.27516145351737" y="132.0" type="line"/>
      <point x="311.60033082072175" y="735.0" type="line"/>
      <point x="216.07379120655247" y="715.0" type="line"/>
      <point x="111.51189164643273" y="122.0" type="line"/>
      <point x="106.57473618659571" y="94.0"/>
      <point x="100.87186959171794" y="73.0"/>
      <point x="90.75838715117246" y="44.0" type="curve" smooth="yes"/>
    </contour>
    <contour>
      <point x="181.14458971727922" y="222.0" type="line"/>
      <point x="151.5216569582571" y="54.0"/>
      <point x="230.23673019291536" y="-10.0"/>
      <point x="316.23673019291533" y="-10.0" type="curve"/>
      <point x="445.23673019291533" y="-10.0"/>
      <point x="547.2220822251787" y="92.0"/>
      <point x="577.1976689456178" y="262.0" type="curve" smooth="yes"/>
      <point x="606.115293781806" y="426.0"/>
      <point x="536.5716648719441" y="525.0"/>
      <point x="431.5716648719441" y="525.0" type="curve" smooth="yes"/>
      <point x="365.5716648719441" y="525.0"/>
      <point x="296.694912624314" y="486.0"/>
      <point x="242.82060170463996" y="430.0" type="curve"/>
      <point x="230.65404003575586" y="361.0" type="line"/>
      <point x="283.2940620904707" y="410.0"/>
      <point x="341.5838715117246" y="440.0"/>
      <point x="391.5838715117246" y="440.0" type="curve" smooth="yes"/>
      <point x="461.5838715117246" y="440.0"/>
      <point x="503.29894474638286" y="376.0"/>
      <point x="482.66868800349243" y="259.0" type="curve" smooth="yes"/>
      <point x="462.7437391834359" y="146.0"/>
      <point x="397.81390770746714" y="67.0"/>
      <point x="314.81390770746714" y="67.0" type="curve"/>
      <point x="254.81390770746717" y="67.0"/>
      <point x="202.6302567428904" y="117.0"/>
      <point x="222.90785952436386" y="232.0" type="curve"/>
    </contour>
  </outline>
</glyph>
<glyph name="f" format="1">
  <advance width="361"/>
  <unicode hex="0066"/>
  <outline>
    <contour>
      <point x="96.70223660818226" y="435.0" type="line"/>
      <point x="430.70223660818226" y="435.0" type="line"/>
      <point x="444.8083950648595" y="515.0" type="line"/>
      <point x="110.80839506485947" y="515.0" type="line"/>
    </contour>
    <contour>
      <point x="110.0" y="0.0" type="line"/>
      <point x="202.0" y="0.0" type="line"/>
      <point x="299.68514731248956" y="554.0" type="line" smooth="yes"/>
      <point x="310.1564206608272" y="613.3855421686746"/>
      <point x="343.7888644412107" y="651.0"/>
      <point x="399.7888644412107" y="651.0" type="curve" smooth="yes"/>
      <point x="424.7888644412107" y="651.0"/>
      <point x="448.7309025569599" y="645.0"/>
      <point x="474.6149787884583" y="633.0" type="curve"/>
      <point x="505.66317536088474" y="707.0" type="line"/>
      <point x="476.1317530908033" y="721.0"/>
      <point x="441.71869591717945" y="730.0"/>
      <point x="400.71869591717945" y="730.0" type="curve" smooth="yes"/>
      <point x="311.71869591717945" y="730.0"/>
      <point x="227.67716529085243" y="667.3803680981595"/>
      <point x="208.214128254615" y="557.0" type="curve" smooth="yes"/>
    </contour>
  </outline>
</glyph>
<glyph name="g" format="1">
  <advance width="586"/>
  <unicode hex="0067"/>
  <outline>
    <contour>
      <point x="101.37399592632629" y="263.0" type="curve" smooth="yes"/>
      <point x="73.51433297438882" y="105.0"/>
      <point x="143.76326980708464" y="10.0"/>
      <point x="248.76326980708464" y="10.0" type="curve" smooth="yes"/>
      <point x="314.76326980708467" y="10.0"/>
      <point x="383.28736809329786" y="47.0"/>
      <point x="436.6326980708465" y="100.0" type="curve"/>
      <point x="448.7992597397306" y="169.0" type="line"/>
      <point x="396.68821862714117" y="123.0"/>
      <point x="338.75106316730415" y="95.0"/>
      <point x="288.75106316730415" y="95.0" type="curve" smooth="yes"/>
      <point x="218.75106316730418" y="95.0"/>
      <point x="176.33068200981208" y="155.0"/>
      <point x="195.90297686845167" y="266.0" type="curve" smooth="yes"/>
      <point x="214.7901679374636" y="373.1145833333333"/>
      <point x="278.9944873573923" y="448.0"/>
      <point x="361.9944873573923" y="448.0" type="curve" smooth="yes"/>
      <point x="421.9944873573923" y="448.0"/>
      <point x="474.1781383219691" y="398.0"/>
      <point x="453.9005355404956" y="283.0" type="curve"/>
      <point x="495.66380534758025" y="293.0" type="line"/>
      <point x="525.2867381066023" y="461.0"/>
      <point x="446.5716648719441" y="525.0"/>
      <point x="360.5716648719441" y="525.0" type="curve" smooth="yes"/>
      <point x="231.5716648719441" y="525.0"/>
      <point x="130.24753901733743" y="426.75"/>
    </contour>
    <contour>
      <point x="53.432587797272575" y="-145.0" type="line"/>
      <point x="95.67175931814403" y="-172.0"/>
      <point x="165.61623876184933" y="-195.0"/>
      <point x="230.61623876184933" y="-195.0" type="curve"/>
      <point x="362.61623876184933" y="-195.0"/>
      <point x="476.9566860834858" y="-108.0"/>
      <point x="504.11104111258936" y="46.0" type="curve" smooth="yes"/>
      <point x="565.2965034184267" y="393.0" type="line"/>
      <point x="570.2336588782638" y="421.0"/>
      <point x="575.9365254731415" y="442.0"/>
      <point x="586.050007913687" y="471.0" type="curve" smooth="yes"/>
      <point x="601.8083950648595" y="515.0" type="line"/>
      <point x="515.8083950648595" y="515.0" type="line"/>
      <point x="479.0573318975553" y="420.0" type="line"/>
      <point x="471.5332336113421" y="383.0" type="line"/>
      <point x="412.6400220547148" y="49.0" type="line" smooth="yes"/>
      <point x="393.4203811574921" y="-60.0"/>
      <point x="326.7803591027773" y="-109.0"/>
      <point x="241.7803591027773" y="-109.0" type="curve"/>
      <point x="180.7803591027773" y="-109.0"/>
      <point x="142.13057173623815" y="-90.0"/>
      <point x="100.71507323465823" y="-64.0" type="curve"/>
    </contour>
    <contour>
      <point x="376.8083950648595" y="515.0" type="move" name="top"/>
    </contour>
  </outline>
</glyph>
<glyph name="i" format="1">
  <advance width="272"/>
  <unicode hex="0069"/>
  <outline>
    <contour>
      <point x="192.61009613254612" y="667.0" type="curve" smooth="yes"/>
      <point x="186.43865180774986" y="632.0"/>
      <point x="207.67782332862132" y="605.0"/>
      <point x="242.67782332862132" y="605.0" type="curve" smooth="yes"/>
      <point x="279.67782332862134" y="605.0"/>
      <point x="308.43865180774986" y="632.0"/>
      <point x="314.6100961325461" y="667.0" type="curve" smooth="yes"/>
      <point x="320.95786743805087" y="703.0"/>
      <point x="301.71869591717945" y="730.0"/>
      <point x="264.71869591717945" y="730.0" type="curve" smooth="yes"/>
      <point x="229.71869591717945" y="730.0"/>
      <point x="198.95786743805087" y="703.0"/>
    </contour>
    <contour>
      <point x="90.0" y="0.0" type="line"/>
      <point x="182.0" y="0.0" type="line"/>
      <point x="272.8083950648595" y="515.0" type="line"/>
      <point x="180.80839506485947" y="515.0" type="line"/>
    </contour>
    <contour>
      <point x="136.0" y="0.0" type="move" name="bottom"/>
    </contour>
  </outline>
</glyph>
<glyph name="j" format="1">
  <advance width="272"/>
  <unicode hex="006A"/>
  <outline>
    <contour>
      <point x="-82.91518350823216" y="-181.0" type="line"/>
      <point x="-63.32579935389988" y="-189.0"/>
      <point x="-37.38376123815067" y="-195.0"/>
      <point x="-10.383761238150669" y="-195.0" type="curve"/>
      <point x="79.61623876184933" y="-195.0"/>
      <point x="158.3721845850657" y="-134.0"/>
      <point x="176.00488265591218" y="-34.0" type="curve" smooth="yes"/>
      <point x="272.8083950648595" y="515.0" type="line"/>
      <point x="180.80839506485947" y="515.0" type="line"/>
      <point x="84.71019057874605" y="-30.0" type="line" smooth="yes"/>
      <point x="74.48322569765509" y="-88.0"/>
      <point x="43.89872419923499" y="-114.0"/>
      <point x="-2.1012758007650056" y="-114.0" type="curve"/>
      <point x="-22.101275800765006" y="-114.0"/>
      <point x="-38.39596787793115" y="-110.0"/>
      <point x="-53.51433297438882" y="-105.0" type="curve"/>
    </contour>
    <contour>
      <point x="192.61009613254612" y="667.0" type="curve" smooth="yes"/>
      <point x="186.43865180774986" y="632.0"/>
      <point x="207.67782332862132" y="605.0"/>
      <point x="242.67782332862132" y="605.0" type="curve" smooth="yes"/>
      <point x="279.67782332862134" y="605.0"/>
      <point x="308.43865180774986" y="632.0"/>
      <point x="314.6100961325461" y="667.0" type="curve" smooth="yes"/>
      <point x="320.95786743805087" y="703.0"/>
      <point x="301.71869591717945" y="730.0"/>
      <point x="264.71869591717945" y="730.0" type="curve" smooth="yes"/>
      <point x="229.71869591717945" y="730.0"/>
      <point x="198.95786743805087" y="703.0"/>
    </contour>
  </outline>
</glyph>
<glyph name="k" format="1">
  <advance width="533"/>
  <unicode hex="006B"/>
  <outline>
    <contour>
      <point x="90.0" y="0.0" type="line"/>
      <point x="182.0" y="0.0" type="line"/>
      <point x="311.60033082072175" y="735.0" type="line"/>
      <point x="216.07379120655247" y="715.0" type="line"/>
    </contour>
    <contour>
      <point x="205.2702787976052" y="166.0" type="line"/>
      <point x="593.8083950648595" y="515.0" type="line"/>
      <point x="476.8083950648595" y="515.0" type="line"/>
      <point x="225.72420855978712" y="282.0" type="line"/>
    </contour>
    <contour>
      <point x="281.3739959263263" y="263.0" type="line"/>
      <point x="406.0" y="0.0" type="line"/>
      <point x="518.0" y="0.0" type="line"/>
      <point x="355.12994174954264" y="324.0" type="line"/>
    </contour>
  </outline>
</glyph>
<glyph name="n" format="1">
  <advance width="604"/>
  <unicode hex="006E"/>
  <outline>
    <contour>
      <point x="165.80839506485947" y="515.0" type="line"/>
      <point x="166.050007913687" y="471.0" type="line" smooth="yes"/>
      <point x="165.9365254731415" y="442.0"/>
      <point x="164.23365887826375" y="421.0"/>
      <point x="159.29650341842674" y="393.0" type="curve" smooth="yes"/>
      <point x="90.0" y="0.0" type="line"/>
      <point x="182.0" y="0.0" type="line"/>
      <point x="249.5332336113421" y="383.0" type="line"/>
      <point x="255.0573318975553" y="420.0" type="line"/>
      <point x="251.80839506485947" y="515.0" type="line"/>
    </contour>
    <contour>
      <point x="230.12505909363045" y="358.0" type="line"/>
      <point x="282.9414081290537" y="408.0"/>
      <point x="340.23121755030763" y="438.0"/>
      <point x="393.23121755030763" y="438.0" type="curve"/>
      <point x="457.23121755030763" y="438.0"/>
      <point x="497.0018113412606" y="397.0"/>
      <point x="480.60340213537336" y="304.0" type="curve" smooth="yes"/>
      <point x="427.0" y="0.0" type="line"/>
      <point x="519.0" y="0.0" type="line"/>
      <point x="574.719325903875" y="316.0" type="line" smooth="yes"/>
      <point x="599.5814301837685" y="457.0"/>
      <point x="534.5716648719441" y="525.0"/>
      <point x="432.5716648719441" y="525.0" type="curve"/>
      <point x="365.5716648719441" y="525.0"/>
      <point x="296.694912624314" y="486.0"/>
      <point x="242.82060170463996" y="430.0" type="curve"/>
    </contour>
    <contour>
      <point x="404.8083950648595" y="515.0" type="move" name="top"/>
    </contour>
  </outline>
</glyph>
<glyph name="r" format="1">
  <advance width="370"/>
  <unicode hex="0072"/>
  <outline>
    <contour>
      <point x="165.80839506485947" y="515.0" type="line"/>
      <point x="166.050007913687" y="471.0" type="line" smooth="yes"/>
      <point x="165.9365254731415" y="442.0"/>
      <point x="164.23365887826375" y="421.0"/>
      <point x="159.29650341842674" y="393.0" type="curve" smooth="yes"/>
      <point x="90.0" y="0.0" type="line"/>
      <point x="182.0" y="0.0" type="line"/>
      <point x="246.88832890071512" y="368.0" type="line"/>
      <point x="255.0573318975553" y="420.0" type="line"/>
      <point x="251.80839506485947" y="515.0" type="line"/>
    </contour>
    <contour>
      <point x="227.65648136371195" y="344.0" type="line"/>
      <point x="273.4728303991352" y="394.0"/>
      <point x="338.4099858589722" y="422.0"/>
      <point x="420.1152937818061" y="426.0" type="curve"/>
      <point x="437.5716648719441" y="525.0" type="line"/>
      <point x="359.5716648719441" y="525.0"/>
      <point x="288.998001224371" y="482.04761904761904"/>
      <point x="240.17569699401298" y="415.0" type="curve"/>
    </contour>
    <contour>
      <point x="295.8083950648595" y="515.0" type="move" name="top"/>
    </contour>
  </outline>
</glyph>
<glyph name="w" format="1">
  <advance width="749"/>
  <unicode hex="0077"/>
  <outline>
    <contour>
      <point x="100.80839506485947" y="515.0" type="line"/>
      <point x="182.0" y="0.0" type="line"/>
      <point x="235.0" y="0.0" type="line"/>
      <point x="250.57473618659571" y="94.0" type="line"/>
      <point x="198.80839506485947" y="515.0" type="line"/>
    </contour>
    <contour>
      <point x="224.57473618659571" y="94.0" type="line"/>
      <point x="209.0" y="0.0" type="line"/>
      <point x="254.0" y="0.0" type="line"/>
      <point x="462.1177351097622" y="409.0" type="line"/>
      <point x="480.8083950648595" y="515.0" type="line"/>
      <point x="429.8083950648595" y="515.0" type="line"/>
    </contour>
    <contour>
      <point x="431.1177351097622" y="409.0" type="line"/>
      <point x="495.0" y="0.0" type="line"/>
      <point x="548.0" y="0.0" type="line"/>
      <point x="563.5747361865957" y="94.0" type="line"/>
      <point x="504.8083950648595" y="515.0" type="line"/>
      <point x="449.8083950648595" y="515.0" type="line"/>
    </contour>
    <contour>
      <point x="537.5747361865957" y="94.0" type="line"/>
      <point x="522.0" y="0.0" type="line"/>
      <point x="567.0" y="0.0" type="line"/>
      <point x="829.8083950648595" y="515.0" type="line"/>
      <point x="735.8083950648595" y="515.0" type="line"/>
    </contour>
    <contour>
      <point x="464.8083950648595" y="515.0" type="move" name="top"/>
    </contour>
  </outline>
</glyph>
<glyph name="x" format="1">
  <advance width="529"/>
  <unicode hex="0078"/>
  <outline>
    <contour>
      <point x="30.0" y="0.0" type="line"/>
      <point x="133.0" y="0.0" type="line"/>
      <point x="309.02866594877764" y="210.0" type="line"/>
      <point x="346.3764372542824" y="246.0" type="line"/>
      <point x="579.8083950648595" y="515.0" type="line"/>
      <point x="476.8083950648595" y="515.0" type="line"/>
      <point x="310.8956528845834" y="317.0" type="line"/>
      <point x="274.9005355404956" y="283.0" type="line"/>
    </contour>
    <contour>
      <point x="130.80839506485947" y="515.0" type="line"/>
      <point x="276.20255160153" y="228.0" type="line"/>
      <point x="391.0" y="0.0" type="line"/>
      <point x="499.0" y="0.0" type="line"/>
      <point x="346.2507481739564" y="302.0" type="line"/>
      <point x="238.80839506485947" y="515.0" type="line"/>
    </contour>
  </outline>
</glyph>
<glyph name="y" format="1">
  <advance width="496"/>
  <unicode hex="0079"/>
  <outline>
    <contour>
      <point x="100.80839506485947" y="515.0" type="line"/>
      <point x="212.0" y="0.0" type="line"/>
      <point x="265.0" y="0.0" type="line"/>
      <point x="279.86942826376185" y="90.0" type="line"/>
      <point x="199.80839506485947" y="515.0" type="line"/>
    </contour>
    <contour>
      <point x="-8.267837469649088" y="-183.0" type="line"/>
      <point x="8.497873665391651" y="-190.0"/>
      <point x="26.61623876184933" y="-195.0"/>
      <point x="48.61623876184933" y="-195.0" type="curve"/>
      <point x="120.61623876184933" y="-195.0"/>
      <point x="198.3746259130218" y="-151.0"/>
      <point x="269.4154985015799" y="-26.0" type="curve" smooth="yes"/>
      <point x="576.8083950648595" y="515.0" type="line"/>
      <point x="481.8083950648595" y="515.0" type="line"/>
      <point x="253.86942826376185" y="90.0" type="line"/>
      <point x="215.05552055629468" y="23.0" type="line"/>
      <point x="151.30689871694662" y="-89.0"/>
      <point x="108.72239721852652" y="-115.0"/>
      <point x="61.722397218526524" y="-115.0" type="curve"/>
      <point x="44.722397218526524" y="-115.0"/>
      <point x="34.07505117994346" y="-113.0"/>
      <point x="17.95668608348578" y="-108.0" type="curve"/>
    </contour>
    <contour>
      <point x="340.8083950648595" y="515.0" type="move" name="top"/>
    </contour>
  </outline>
</glyph>
<glyph name="braceleft" format="1">
  <advance width="348"/>
  <unicode hex="007B"/>
  <outline>
    <contour>
      <point x="111.61316744719772" y="236.0" type="line"/>
      <point x="196.09763146601904" y="210.0"/>
      <point x="227.2098755853983" y="177.0"/>
      <point x="220.1567963570597" y="137.0" type="curve" smooth="yes"/>
      <point x="206.93227280392483" y="62.0"/>
      <point x="115.29225074921004" y="13.0"/>
      <point x="98.71751456261434" y="-81.0" type="curve" smooth="yes"/>
      <point x="83.72972120239481" y="-166.0"/>
      <point x="136.93513412301127" y="-231.0"/>
      <point x="262.5656008614668" y="-252.0" type="curve"/>
      <point x="283.61623876184933" y="-195.0" type="line"/>
      <point x="188.7297212023948" y="-166.0"/>
      <point x="172.60647345002494" y="-127.0"/>
      <point x="180.54118758190586" y="-82.0" type="curve" smooth="yes"/>
      <point x="193.5893841543323" y="-8.0"/>
      <point x="281.6400220547148" y="49.0"/>
      <point x="296.0988344728089" y="131.0" type="curve" smooth="yes"/>
      <point x="307.38376123815067" y="195.0"/>
      <point x="277.6711293314485" y="242.0"/>
      <point x="193.2556308298686" y="268.0" type="curve"/>
      <point x="286.8401323282887" y="294.0"/>
      <point x="333.12750042158655" y="341.0"/>
      <point x="344.4124271869283" y="405.0" type="curve" smooth="yes"/>
      <point x="358.8712396050224" y="487.0"/>
      <point x="290.74555052469645" y="543.0"/>
      <point x="303.7937470971229" y="617.0" type="curve" smooth="yes"/>
      <point x="311.7284612290038" y="662.0"/>
      <point x="341.60521347663393" y="701.0"/>
      <point x="446.71869591717945" y="730.0" type="curve"/>
      <point x="445.7693338175619" y="787.0" type="line"/>
      <point x="311.782153497194" y="766.0"/>
      <point x="236.60521347663393" y="701.0"/>
      <point x="221.61742011641442" y="616.0" type="curve" smooth="yes"/>
      <point x="205.04268392981874" y="522.0"/>
      <point x="279.5789888558124" y="474.0"/>
      <point x="266.3544653026775" y="399.0" type="curve" smooth="yes"/>
      <point x="259.30138607433895" y="359.0"/>
      <point x="216.55156122820097" y="326.0"/>
      <point x="122.89809421253949" y="300.0" type="curve"/>
    </contour>
  </outline>
</glyph>
